<svg width="256" height="174" viewBox="0 0 256 174" fill="none" xmlns="http://www.w3.org/2000/svg">
<path d="M67.3535 64.8428C68.6948 64.0718 70.402 64.2747 71.4995 65.4108C72.5564 66.547 74.0603 67.2368 76.2147 67.2368C79.3446 67.2368 80.1575 66.0195 80.1575 64.8833C80.1575 63.0979 78.491 62.4081 74.1823 61.2314C69.8736 60.0546 65.6869 57.9852 65.6869 52.4666C65.6869 46.9075 70.402 43.7019 75.4017 43.7019C78.7755 43.7019 81.6208 44.8381 83.7345 47.0293C85.1572 48.49 84.7914 50.9247 83.0029 51.9391C81.7428 52.6695 80.1169 52.5478 79.06 51.4928C78.2064 50.6001 77.0276 50.1131 75.4017 50.1131C73.3287 50.1131 72.3125 51.1276 72.3125 52.3043C72.3125 53.6434 73.0035 54.5361 77.5154 55.8751C81.9054 57.2142 86.8238 58.7156 86.8238 64.8022C86.8238 70.3613 82.3525 73.6481 76.0927 73.6481C71.906 73.6481 68.7761 72.2684 66.7031 70.0367C65.0772 68.4947 65.443 65.9384 67.3535 64.8428Z" fill="white"/>
<path d="M110.847 54.1304C110.847 59.6083 106.416 64.0313 100.725 64.0313H96.3761V69.7933C96.3761 71.6193 94.9128 73.0801 93.0836 73.0801C91.2545 73.0801 89.7911 71.6193 89.7911 69.7933V44.2295H100.725C106.416 44.2701 110.847 48.6524 110.847 54.1304ZM104.262 54.1304C104.262 52.0204 102.758 50.4378 100.766 50.4378H96.4167V57.8635H100.766C102.758 57.8635 104.262 56.2404 104.262 54.1304Z" fill="white"/>
<path d="M132.309 69.9555C132.309 71.7004 130.886 73.1206 129.138 73.1206H114.139V44.27H128.935C130.683 44.27 132.105 45.6902 132.105 47.4351C132.105 49.1799 130.683 50.6001 128.935 50.6001H120.765V55.3882H125.561C127.309 55.3882 128.691 56.8084 128.691 58.5127C128.691 60.2575 127.268 61.6372 125.561 61.6372H120.765V66.7499H129.138C130.886 66.7499 132.309 68.1701 132.309 69.9555Z" fill="white"/>
<path d="M134.585 58.675C134.585 50.1943 140.885 43.6614 149.625 43.6614C153.242 43.6614 156.535 44.8787 159.096 46.9887C160.843 48.4089 160.6 51.1682 158.648 52.2638C157.47 52.9536 155.966 52.8319 154.95 51.9392C153.608 50.7624 151.738 50.0726 149.625 50.0726C144.503 50.0726 141.211 53.4811 141.211 58.6345C141.211 63.7878 144.503 67.1963 149.625 67.1963C151.698 67.1963 153.608 66.5471 154.95 65.3297C155.966 64.437 157.47 64.3153 158.648 65.0051C160.6 66.1413 160.843 68.86 159.096 70.2802C156.575 72.3902 153.242 73.6075 149.625 73.6075C140.926 73.6887 134.585 67.1963 134.585 58.675Z" fill="white"/>
<path d="M171.737 47.5568V69.8338C171.737 71.6598 170.274 73.1206 168.445 73.1206C166.615 73.1206 165.152 71.6598 165.152 69.8338V47.5568C165.152 45.7308 166.615 44.27 168.445 44.27C170.233 44.27 171.737 45.7308 171.737 47.5568Z" fill="white"/>
<path d="M193.606 68.5759H182.875L181.777 72.025C181.574 72.6742 180.964 73.1206 180.273 73.1206H176.412C175.314 73.1206 174.582 72.0656 174.908 71.0511L182.671 48.2466C183.484 45.8525 185.72 44.27 188.24 44.27C190.76 44.27 192.996 45.8525 193.809 48.2466L201.207 69.9555C201.735 71.4975 200.597 73.1206 198.93 73.1206H196.817C195.76 73.1206 194.866 72.4308 194.54 71.4569L193.606 68.5759ZM191.614 62.4081L188.24 51.8174L184.866 62.4081H191.614Z" fill="white"/>
<path d="M221.693 69.9555C221.693 71.7004 220.27 73.1206 218.523 73.1206H208.686C206.532 73.1206 204.784 71.3757 204.784 69.2251V47.5568C204.784 45.7308 206.247 44.27 208.076 44.27C209.905 44.27 211.369 45.7308 211.369 47.5568V66.7499H218.523C220.27 66.7499 221.693 68.1701 221.693 69.9555Z" fill="#11B3AC"/>
<path d="M231.205 47.5568V69.8338C231.205 71.6598 229.742 73.1206 227.912 73.1206C226.083 73.1206 224.62 71.6598 224.62 69.8338V47.5568C224.62 45.7308 226.083 44.27 227.912 44.27C229.701 44.27 231.205 45.7308 231.205 47.5568Z" fill="#11B3AC"/>
<path d="M252.382 50.6001H248.114V69.7932C248.114 71.6192 246.651 73.08 244.822 73.08C242.993 73.08 241.529 71.6192 241.529 69.7932V50.6001H237.261C235.513 50.6001 234.091 49.1799 234.091 47.4351C234.091 45.6902 235.513 44.27 237.261 44.27H252.382C254.13 44.27 255.553 45.6902 255.553 47.4351C255.553 49.1799 254.13 50.6001 252.382 50.6001Z" fill="#11B3AC"/>
<path d="M33.1686 103.757C33.1279 103.757 33.0873 103.757 33.0466 103.757C21.5433 103.675 12.1943 94.2208 12.1943 82.6157V76.1233C12.1943 75.2306 12.5195 74.3784 13.1292 73.7698C13.7796 73.1205 14.5925 72.7959 15.5274 72.7959C17.3159 72.8365 18.7386 74.3379 18.7386 76.1233V82.6157C18.7386 90.5688 25.1203 97.1018 33.006 97.183C33.0466 97.183 33.0873 97.183 33.1686 97.183C36.9895 97.183 40.5665 95.7222 43.2899 93.0035C46.0539 90.2848 47.5579 86.6734 47.5579 82.778V77.3812C47.5579 77.016 47.314 76.7319 46.9888 76.6508L16.7875 68.8599C13.6983 68.0484 11.7472 64.9645 12.3163 61.84C12.5601 60.6227 13.1292 59.5271 14.0235 58.675C14.999 57.7011 16.2184 57.133 17.5192 56.9707L15.4461 56.4026C13.5357 55.9157 12.1943 54.2114 12.235 52.2232V48.4495C7.35722 43.2555 4.59317 36.4385 4.47122 29.2969C4.34928 21.7495 7.15398 14.5673 12.3975 9.04875C17.6411 3.53022 24.6732 0.365177 32.2337 0.121713C40.1194 -0.162329 47.5986 2.71867 53.2486 8.15605C58.9393 13.634 62.0692 20.9785 62.0692 28.8505C62.0692 35.8704 59.5084 42.6063 54.9152 47.8408C54.3055 48.5306 53.4925 48.9364 52.5576 48.9364C51.6633 48.977 50.7691 48.6118 50.1187 47.9625C48.8993 46.7452 48.8586 44.7975 49.9561 43.5396C53.6551 39.3601 55.6468 33.9633 55.5249 28.323C55.2404 16.5556 45.8101 7.06046 34.0628 6.65468C27.9657 6.45179 22.2343 8.68355 17.885 12.9036C13.4544 17.1237 11.0562 22.7639 11.0562 28.81C11.0562 34.8966 13.4544 40.5369 17.8444 44.7569L17.9257 44.8786C18.4947 45.5685 18.8199 46.4206 18.8199 47.3133V50.4783L49.4277 58.3909C51.1756 58.8373 52.6389 60.014 53.4518 61.5965C54.2648 63.1791 54.3867 65.0862 53.777 66.7905C53.5738 67.3991 53.2486 67.9672 52.8421 68.4541C51.9885 69.5091 50.8504 70.2395 49.631 70.6047C52.3544 71.7003 54.2242 74.3784 54.2242 77.3812V82.778C54.2242 88.3777 52.0292 93.6527 48.0457 97.6293C43.9809 101.565 38.7373 103.757 33.1686 103.757ZM33.0873 101.525C33.1279 101.525 33.1686 101.525 33.1686 101.525C38.1683 101.525 42.8428 99.577 46.3791 96.0874C49.9561 92.5571 51.9072 87.8502 51.9072 82.8186V77.4218C51.9072 75.1088 50.322 73.08 48.0863 72.5119L17.885 64.6804C17.1127 64.4775 16.5436 63.7877 16.5436 62.9762C16.5436 62.4081 16.7875 61.9212 17.2346 61.5965C17.6818 61.2314 18.2102 61.1502 18.7793 61.2719L46.7856 68.4947C48.3709 68.9005 49.9968 68.373 51.0536 67.0745C51.2975 66.7499 51.5008 66.4253 51.6633 66.0195C52.0698 64.8833 52.0292 63.7066 51.4601 62.6516C50.9317 61.5965 49.9561 60.8662 48.8586 60.5821L16.5843 52.2637V47.3539C16.5843 46.9887 16.4623 46.664 16.2591 46.38C11.422 41.7136 8.82054 35.5052 8.82054 28.81C8.82054 22.1553 11.4626 15.9063 16.2997 11.2805C21.0962 6.65468 27.4372 4.17946 34.1035 4.42292C47.0701 4.8287 57.4353 15.2977 57.7605 28.2419C57.8825 34.4502 55.7281 40.3745 51.6633 44.9598C51.2975 45.3656 51.3382 45.9742 51.704 46.3394C51.9072 46.5423 52.1918 46.664 52.5169 46.664C52.8015 46.664 53.086 46.5423 53.2893 46.2988C57.5573 41.4701 59.9148 35.2618 59.9148 28.81C59.9148 21.5466 57.0289 14.7702 51.7853 9.73857C46.745 4.95043 40.2007 2.31289 33.2905 2.31289C32.9653 2.31289 32.6402 2.31289 32.315 2.31289C25.3642 2.55636 18.8606 5.47794 14.0235 10.5907C9.18637 15.6629 6.58491 22.3176 6.70685 29.2563C6.8288 35.9922 9.4709 42.4034 14.1454 47.2321L14.4706 47.5567V52.2637C14.4706 53.197 15.121 54.0491 16.0152 54.252L48.3302 62.611C49.2245 62.8544 49.8342 63.6254 49.8342 64.5587C49.8342 65.1674 49.5497 65.776 49.0619 66.1412C48.5335 66.547 47.9237 66.6687 47.314 66.5064L19.267 59.2431C17.9663 58.9184 16.5843 59.2836 15.5681 60.2169C14.999 60.7444 14.6332 61.4748 14.5112 62.2052C14.1454 64.1935 15.3648 66.1412 17.3159 66.6687L47.5173 74.4596C48.8586 74.7842 49.7529 76.0015 49.7529 77.3406V82.7374C49.7529 87.2009 48.005 91.3804 44.8345 94.5454C41.664 97.7105 37.4366 99.4147 32.9653 99.3741C23.9009 99.293 16.503 91.7456 16.503 82.5751V76.0827C16.503 75.474 16.0559 74.9871 15.4868 74.9871C15.1616 74.9871 14.9177 75.1088 14.7145 75.3117C14.5112 75.5146 14.4299 75.7987 14.4299 76.1233V82.6157C14.4706 92.9629 22.8034 101.444 33.0873 101.525Z" fill="white"/>
<g clip-path="url(#clip0)">
<path d="M24.9 172.75V158.05H29.8L30.5 152.35H24.8V148.75C24.8 147.05 25.3 145.95 27.6 145.95H30.6V140.85C30.1 140.75 28.3 140.65 26.2 140.65C21.8 140.65 18.9 143.35 18.9 148.15V152.35H14V158.05H18.9V172.75H24.9Z" fill="white"/>
<path d="M100.9 150.65C100.9 150.65 100.6 148.55 99.7 147.65C98.5 146.45 97.2 146.45 96.6 146.35C92.3 146.05 85.9 146.05 85.9 146.05C85.9 146.05 79.5 146.05 75.2 146.35C74.6 146.45 73.3 146.45 72.1 147.65C71.2 148.55 70.9 150.65 70.9 150.65C70.9 150.65 70.6 153.15 70.6 155.55V157.85C70.6 160.35 70.9 162.75 70.9 162.75C70.9 162.75 71.2 164.85 72.1 165.75C73.3 166.95 74.7999 166.95 75.4999 167.05C77.8999 167.25 85.9 167.35 85.9 167.35C85.9 167.35 92.3 167.35 96.6 167.05C97.2 166.95 98.5 166.95 99.7 165.75C100.6 164.85 100.9 162.75 100.9 162.75C100.9 162.75 101.2 160.25 101.2 157.85V155.55C101.2 153.15 100.9 150.65 100.9 150.65Z" fill="white"/>
<path d="M82.8 160.75L91 156.45L82.8 152.15V160.75Z" fill="#1B2333"/>
<path d="M150.2 168.1C160.8 168.1 166.6 159.3 166.6 151.7C166.6 151.4 166.6 151.2 166.6 151C167.7 150.2 168.7 149.2 169.5 148C168.5 148.5 167.3 148.8 166.2 148.9C167.4 148.2 168.3 147.1 168.7 145.7C167.6 146.4 166.3 146.8 165 147.1C163.9 146 162.4 145.3 160.8 145.3C157.6 145.3 155 147.9 155 151.1C155 151.6 155.1 152 155.1 152.4C150.3 152.2 146 149.9 143.2 146.4C142.7 147.3 142.4 148.2 142.4 149.3C142.4 151.3 143.4 153.1 145 154.1C144.1 154.1 143.2 153.8 142.4 153.4C142.4 153.4 142.4 153.4 142.4 153.5C142.4 156.3 144.4 158.6 147 159.2C146.5 159.3 146 159.4 145.5 159.4C145.1 159.4 144.8 159.4 144.4 159.3C145.1 161.6 147.3 163.3 149.8 163.3C147.8 164.9 145.3 165.8 142.6 165.8C142.1 165.8 141.7 165.8 141.2 165.7C143.9 167.1 146.9 168.1 150.2 168.1Z" fill="white"/>
<path d="M226.2 143C230.6 143 231.2 143 232.9 143.1C234.5 143.2 235.4 143.4 236 143.7C236.8 144 237.3 144.4 237.9 144.9C238.5 145.5 238.8 146 239.1 146.8C239.3 147.4 239.6 148.3 239.7 149.9C239.8 151.7 239.8 152.2 239.8 156.6C239.8 161 239.8 161.6 239.7 163.3C239.6 164.9 239.4 165.8 239.1 166.4C238.8 167.2 238.4 167.7 237.9 168.3C237.3 168.9 236.8 169.2 236 169.5C235.4 169.7 234.5 170 232.9 170.1C231.1 170.2 230.6 170.2 226.2 170.2C221.8 170.2 221.2 170.2 219.5 170.1C217.9 170 217 169.8 216.4 169.5C215.6 169.2 215.1 168.8 214.5 168.3C213.9 167.7 213.6 167.2 213.3 166.4C213.1 165.8 212.8 164.9 212.7 163.3C212.6 161.5 212.6 161 212.6 156.6C212.6 152.2 212.6 151.6 212.7 149.9C212.8 148.3 213 147.4 213.3 146.8C213.6 146 214 145.5 214.5 144.9C215.1 144.3 215.6 144 216.4 143.7C217 143.5 217.9 143.2 219.5 143.1C221.3 143.1 221.8 143 226.2 143ZM226.2 140C221.7 140 221.1 140 219.3 140.1C217.5 140.2 216.3 140.5 215.3 140.9C214.2 141.3 213.3 141.9 212.3 142.8C211.4 143.7 210.8 144.7 210.4 145.8C210 146.9 209.7 148.1 209.6 149.8C209.5 151.6 209.5 152.1 209.5 156.7C209.5 161.2 209.5 161.8 209.6 163.6C209.7 165.4 210 166.6 210.4 167.6C210.8 168.7 211.4 169.6 212.3 170.6C213.2 171.5 214.2 172.1 215.3 172.5C216.4 172.9 217.6 173.2 219.3 173.3C221.1 173.4 221.6 173.4 226.2 173.4C230.8 173.4 231.3 173.4 233.1 173.3C234.9 173.2 236.1 172.9 237.1 172.5C238.2 172.1 239.1 171.5 240.1 170.6C241 169.7 241.6 168.7 242 167.6C242.4 166.5 242.7 165.3 242.8 163.6C242.9 161.8 242.9 161.3 242.9 156.7C242.9 152.2 242.9 151.6 242.8 149.8C242.7 148 242.4 146.8 242 145.8C241.6 144.7 241 143.8 240.1 142.8C239.2 141.9 238.2 141.3 237.1 140.9C236 140.5 234.8 140.2 233.1 140.1C231.3 140.1 230.8 140 226.2 140Z" fill="white"/>
<path d="M226.2 148.1C221.5 148.1 217.6 151.9 217.6 156.7C217.6 161.5 221.4 165.3 226.2 165.3C231 165.3 234.8 161.5 234.8 156.7C234.8 151.9 231 148.1 226.2 148.1ZM226.2 162.3C223.1 162.3 220.6 159.8 220.6 156.7C220.6 153.6 223.1 151.1 226.2 151.1C229.3 151.1 231.8 153.6 231.8 156.7C231.8 159.8 229.3 162.3 226.2 162.3Z" fill="white"/>
<path d="M237.1 147.8C237.1 148.9 236.2 149.8 235.1 149.8C234 149.8 233.1 148.9 233.1 147.8C233.1 146.7 234 145.8 235.1 145.8C236.2 145.8 237.1 146.7 237.1 147.8Z" fill="white"/>
</g>
<defs>
<clipPath id="clip0">
<rect x="14" y="140" width="228.9" height="33.4" fill="white"/>
</clipPath>
</defs>
</svg>
