<svg width="112" height="46" viewBox="0 0 112 46" fill="none" xmlns="http://www.w3.org/2000/svg">
<path d="M29.8247 28.4057C30.404 28.0722 31.1414 28.16 31.6154 28.6515C32.0718 29.1431 32.7214 29.4415 33.6518 29.4415C35.0036 29.4415 35.3547 28.9148 35.3547 28.4233C35.3547 27.6508 34.6349 27.3524 32.774 26.8433C30.9131 26.3342 29.1049 25.4388 29.1049 23.0513C29.1049 20.6462 31.1414 19.2593 33.3007 19.2593C34.7578 19.2593 35.9867 19.7508 36.8996 20.6988C37.514 21.3308 37.356 22.3842 36.5836 22.8231C36.0394 23.1391 35.3371 23.0864 34.8807 22.63C34.512 22.2437 34.0029 22.0331 33.3007 22.0331C32.4054 22.0331 31.9665 22.472 31.9665 22.9811C31.9665 23.5604 32.2649 23.9466 34.2136 24.526C36.1096 25.1053 38.2338 25.7548 38.2338 28.3882C38.2338 30.7933 36.3027 32.2153 33.5991 32.2153C31.7909 32.2153 30.4391 31.6184 29.5438 30.6528C28.8591 29.9682 29.0171 28.8622 29.8247 28.4057Z" fill="#1B2333"/>
<path d="M48.6267 23.7724C48.6267 26.1424 46.7131 28.056 44.2553 28.056H42.3769V30.5489C42.3769 31.3389 41.7449 31.9709 40.9549 31.9709C40.1649 31.9709 39.5329 31.3389 39.5329 30.5489V19.4889H44.2553C46.7131 19.4889 48.6267 21.4024 48.6267 23.7724ZM45.7651 23.7724C45.7651 22.8596 45.1156 22.1749 44.2553 22.1749H42.3769V25.3876H44.2553C45.1331 25.37 45.7651 24.6853 45.7651 23.7724Z" fill="#1B2333"/>
<path d="M57.896 30.6016C57.896 31.3564 57.2816 31.9709 56.5267 31.9709H50.0487V19.4889H56.4389C57.1938 19.4889 57.8082 20.1033 57.8082 20.8582C57.8082 21.6131 57.1938 22.2276 56.4389 22.2276H52.9103V24.2991H54.9818C55.7367 24.2991 56.3336 24.9136 56.3336 25.6509C56.3336 26.4058 55.7191 27.0027 54.9818 27.0027H52.9103V29.2147H56.5267C57.2816 29.2322 57.896 29.8467 57.896 30.6016Z" fill="#1B2333"/>
<path d="M58.8791 25.7211C58.8791 22.052 61.6002 19.2256 65.3747 19.2256C66.9371 19.2256 68.3591 19.7522 69.4651 20.6651C70.22 21.2796 70.1147 22.4733 69.272 22.9473C68.7629 23.2458 68.1133 23.1931 67.6745 22.8069C67.0951 22.2978 66.2876 21.9993 65.3747 21.9993C63.1627 21.9993 61.7407 23.474 61.7407 25.7036C61.7407 27.9331 63.1627 29.4078 65.3747 29.4078C66.27 29.4078 67.0951 29.1269 67.6745 28.6002C68.1133 28.214 68.7629 28.1613 69.272 28.4598C70.1147 28.9513 70.22 30.1276 69.4651 30.742C68.3767 31.6549 66.9371 32.1816 65.3747 32.1816C61.6178 32.2167 58.8791 29.4078 58.8791 25.7211Z" fill="#1B2333"/>
<path d="M74.9074 20.9109V30.5489C74.9074 31.3389 74.2754 31.9709 73.4854 31.9709C72.6954 31.9709 72.0634 31.3389 72.0634 30.5489V20.9109C72.0634 20.1209 72.6954 19.4889 73.4854 19.4889C74.2754 19.4889 74.9074 20.1209 74.9074 20.9109Z" fill="#1B2333"/>
<path d="M84.3698 30.0047H79.7352L79.2612 31.4969C79.1734 31.7778 78.9101 31.9709 78.6116 31.9709H76.9438C76.4698 31.9709 76.1538 31.5144 76.2943 31.0756L79.6474 21.2093C79.9985 20.1736 80.9641 19.4889 82.0525 19.4889C83.141 19.4889 84.1065 20.1736 84.4576 21.2093L87.6527 30.6016C87.881 31.2687 87.3894 31.9709 86.6696 31.9709H85.7567C85.3003 31.9709 84.9141 31.6724 84.7736 31.2511L84.3698 30.0047ZM83.5096 27.3362L82.0525 22.7542L80.5954 27.3362H83.5096Z" fill="#1B2333"/>
<path d="M96.5007 30.6016C96.5007 31.3564 95.8862 31.9709 95.1313 31.9709H90.8829C89.9525 31.9709 89.1976 31.216 89.1976 30.2856V20.9109C89.1976 20.1209 89.8296 19.4889 90.6196 19.4889C91.4096 19.4889 92.0416 20.1209 92.0416 20.9109V29.2147H95.1313C95.8862 29.2322 96.5007 29.8467 96.5007 30.6016Z" fill="#11B3AC"/>
<path d="M100.609 20.9109V30.5489C100.609 31.3389 99.9767 31.9709 99.1867 31.9709C98.3967 31.9709 97.7647 31.3389 97.7647 30.5489V20.9109C97.7647 20.1209 98.3967 19.4889 99.1867 19.4889C99.9592 19.4889 100.609 20.1209 100.609 20.9109Z" fill="#11B3AC"/>
<path d="M109.755 22.2276H107.912V30.5489C107.912 31.3389 107.28 31.9709 106.49 31.9709C105.7 31.9709 105.068 31.3389 105.068 30.5489V22.2451H103.224C102.47 22.2451 101.855 21.6307 101.855 20.8758C101.855 20.1209 102.47 19.5065 103.224 19.5065H109.755C110.51 19.5065 111.124 20.1209 111.124 20.8758C111.124 21.6131 110.51 22.2276 109.755 22.2276Z" fill="#11B3AC"/>
<path d="M12.9538 45.3307H12.9011C8.00311 45.2956 4.01799 41.2578 4.01799 36.3071V33.4631C4.01799 33.1296 4.14088 32.8136 4.3691 32.6029C4.59733 32.3747 4.91333 32.2342 5.24688 32.2518C5.89644 32.2693 6.42311 32.8136 6.42311 33.4631V36.3071C6.42311 39.9236 9.33733 42.908 12.9011 42.9431C14.6567 42.9607 16.3244 42.2936 17.5709 41.0471C18.8173 39.8007 19.5196 38.1504 19.5196 36.3949V34.0249C19.5196 33.7616 19.344 33.5333 19.0807 33.4631L5.86133 30.0398C4.63244 29.7238 3.85999 28.4949 4.08822 27.2309C4.17599 26.7569 4.42177 26.3004 4.77288 25.9669C5.38733 25.37 6.24755 25.1242 7.09022 25.3524L19.3616 28.53C19.4142 28.5476 19.4493 28.53 19.4844 28.4949C19.5371 28.4598 19.5371 28.3896 19.5371 28.372C19.5371 28.3018 19.4844 28.2491 19.4318 28.2316L5.29955 24.58C4.57977 24.3869 4.07066 23.7373 4.07066 22.9824V21.2269C1.92888 18.9798 0.735101 16.0304 0.682434 12.9231C0.629767 9.67534 1.8411 6.58556 4.08822 4.21556C6.33533 1.84556 9.35489 0.476229 12.6027 0.370895C12.7607 0.370895 12.9011 0.370895 13.0591 0.370895C16.2718 0.370895 19.3089 1.59978 21.6262 3.84689C24.0665 6.19934 25.4007 9.35934 25.4007 12.73C25.4007 15.7496 24.3122 18.6462 22.3285 20.8933C22.1178 21.1391 21.8018 21.2796 21.4682 21.2971C21.1347 21.3147 20.8187 21.1742 20.5729 20.946C20.134 20.5071 20.1164 19.8049 20.5202 19.3309C22.188 17.4524 23.0658 15.0298 23.0131 12.5018C22.8902 7.21756 18.6593 2.934 13.3751 2.776C10.654 2.68823 8.07333 3.68889 6.10711 5.58489C4.14088 7.48089 3.06999 10.0265 3.06999 12.7476C3.06999 15.4687 4.15844 18.0142 6.10711 19.9102L6.12466 19.9453C6.33533 20.2087 6.45822 20.5247 6.45822 20.8582V22.4382L20.0287 25.9493C20.7133 26.1249 21.3102 26.5989 21.6438 27.2309C21.9773 27.8804 22.03 28.6178 21.7667 29.3024C21.6789 29.5482 21.556 29.7589 21.3804 29.9696C20.7309 30.7596 19.7302 31.0931 18.7647 30.8473L6.51088 27.6698C6.49333 27.6698 6.49333 27.6698 6.47577 27.6698C6.45822 27.6873 6.45822 27.6873 6.45822 27.7049C6.45822 27.7224 6.47577 27.74 6.49333 27.74L19.7302 31.1633C21.0469 31.4969 21.9598 32.6907 21.9598 34.0424V36.4125C21.9598 38.8 21.0293 41.0471 19.3264 42.75C17.5533 44.4178 15.3238 45.3307 12.9538 45.3307ZM5.21177 32.7433C5.01866 32.7433 4.8431 32.8136 4.70266 32.954C4.57977 33.0944 4.50955 33.27 4.50955 33.4807V36.3247C4.50955 41.012 8.26644 44.8391 12.9011 44.8567H12.9362C15.2009 44.8567 17.3076 43.9789 18.9051 42.3989C20.5202 40.8013 21.398 38.6771 21.398 36.4125V34.0424C21.398 32.9189 20.6431 31.9358 19.5371 31.6549L6.30022 28.2316C6.07199 28.1789 5.89644 27.9682 5.89644 27.7224C5.89644 27.5644 5.96666 27.4064 6.10711 27.3011C6.24755 27.1958 6.40555 27.1607 6.56355 27.2133L18.8173 30.3909C19.6073 30.6016 20.4149 30.3207 20.9416 29.6711C21.0644 29.5131 21.1698 29.3376 21.24 29.1444C21.4507 28.5827 21.4156 27.9858 21.1347 27.4591C20.8713 26.95 20.3973 26.5638 19.8356 26.4233L5.89644 22.8069V20.8407C5.89644 20.63 5.82622 20.4193 5.68577 20.2438C3.63177 18.2424 2.49066 15.574 2.49066 12.73C2.49066 9.86845 3.63177 7.20001 5.68577 5.21623C7.73977 3.23245 10.4433 2.17912 13.3049 2.26689C18.8524 2.44245 23.294 6.93667 23.4169 12.4842C23.4696 15.1351 22.5567 17.6807 20.8011 19.6644C20.5553 19.9278 20.5729 20.3491 20.8362 20.6124C20.9767 20.7529 21.1698 20.8231 21.3629 20.8231C21.556 20.8231 21.7316 20.7353 21.872 20.5773C23.7856 18.418 24.8213 15.6267 24.8213 12.7476C24.8213 9.49978 23.5398 6.46267 21.1873 4.21556C18.9578 2.07378 16.0436 0.880005 12.9538 0.880005C12.8133 0.880005 12.6729 0.880005 12.5149 0.880005C9.40755 0.985339 6.51088 2.30201 4.35155 4.58423C2.19221 6.86645 1.03355 9.83334 1.08621 12.9407C1.13888 15.9602 2.3151 18.8218 4.40422 20.9811L4.47444 21.0513V23C4.47444 23.5267 4.82555 23.9831 5.33466 24.1236L19.4669 27.7751C19.7478 27.8453 19.9409 28.1087 19.9409 28.3896C19.9409 28.6529 19.7829 28.8284 19.6951 28.8987C19.5371 29.0216 19.3264 29.0567 19.1333 29.0216L6.87955 25.844C6.21244 25.6684 5.52777 25.8616 5.03622 26.3356C4.75533 26.5989 4.56222 26.9676 4.49199 27.3362C4.29888 28.3369 4.93088 29.32 5.91399 29.5658L19.1333 32.9891C19.6073 33.112 19.9409 33.5333 19.9409 34.0249V36.3949C19.9409 38.2909 19.2036 40.064 17.8518 41.3982C16.5176 42.7149 14.762 43.4347 12.9011 43.4347C12.8836 43.4347 12.8484 43.4347 12.8309 43.4347C8.98622 43.3996 5.86133 40.2044 5.86133 36.3071V33.4631C5.91399 33.0769 5.59799 32.7433 5.21177 32.7433C5.22933 32.7433 5.21177 32.7433 5.21177 32.7433Z" fill="#1B2333"/>
</svg>
